{
    "asset" : {
        "generator" : "Khronos glTF Blender I/O v1.0.5",
        "version" : "2.0"
    },
    "scene" : 0,
    "scenes" : [
        {
            "name" : "Scene",
            "nodes" : [
                0
            ]
        }
    ],
    "nodes" : [
        {
            "mesh" : 0,
            "name" : "BezierCurve.002",
            "rotation" : [
                0.2494807243347168,
                0.2578936219215393,
                0.7654932141304016,
                0.5341070890426636
            ],
            "scale" : [
                39.28267288208008,
                39.28266906738281,
                39.282676696777344
            ],
            "translation" : [
                5.410470962524414,
                148.49667358398438,
                29.553804397583008
            ]
        }
    ],
    "materials" : [
        {
            "doubleSided" : true,
            "name" : "Plastic - Matte (Red)",
            "pbrMetallicRoughness" : {
                "baseColorFactor" : [
                    0.768627405166626,
                    0,
                    0.04136643186211586,
                    1
                ],
                "metallicFactor" : 0,
                "roughnessFactor" : 1
            }
        },
        {
            "doubleSided" : true,
            "name" : "Plastic - Matte (Red).001",
            "pbrMetallicRoughness" : {
                "baseColorFactor" : [
                    0.768627405166626,
                    0,
                    0.04136643186211586,
                    1
                ],
                "metallicFactor" : 0,
                "roughnessFactor" : 1
            }
        }
    ],
    "meshes" : [
        {
            "name" : "BezierCurve.003",
            "primitives" : [
                {
                    "attributes" : {
                        "POSITION" : 0,
                        "NORMAL" : 1,
                        "TEXCOORD_0" : 2
                    },
                    "indices" : 3,
                    "material" : 0
                },
                {
                    "attributes" : {
                        "POSITION" : 4,
                        "NORMAL" : 5,
                        "TEXCOORD_0" : 6
                    },
                    "indices" : 7,
                    "material" : 1
                }
            ]
        }
    ],
    "accessors" : [
        {
            "bufferView" : 0,
            "componentType" : 5126,
            "count" : 41898,
            "max" : [
                9.098365783691406,
                1.343192219734192,
                1.9043165445327759
            ],
            "min" : [
                -3.8078079223632812,
                -2.7408652305603027,
                -1.6262606382369995
            ],
            "type" : "VEC3"
        },
        {
            "bufferView" : 1,
            "componentType" : 5126,
            "count" : 41898,
            "type" : "VEC3"
        },
        {
            "bufferView" : 2,
            "componentType" : 5126,
            "count" : 41898,
            "type" : "VEC2"
        },
        {
            "bufferView" : 3,
            "componentType" : 5123,
            "count" : 220542,
            "type" : "SCALAR"
        },
        {
            "bufferView" : 4,
            "componentType" : 5126,
            "count" : 11520,
            "max" : [
                8.858011245727539,
                0.1612231433391571,
                1.266036868095398
            ],
            "min" : [
                1.600400686264038,
                -2.4314191341400146,
                -0.3034679889678955
            ],
            "type" : "VEC3"
        },
        {
            "bufferView" : 5,
            "componentType" : 5126,
            "count" : 11520,
            "type" : "VEC3"
        },
        {
            "bufferView" : 6,
            "componentType" : 5126,
            "count" : 11520,
            "type" : "VEC2"
        },
        {
            "bufferView" : 7,
            "componentType" : 5123,
            "count" : 67824,
            "type" : "SCALAR"
        }
    ],
    "bufferViews" : [
        {
            "buffer" : 0,
            "byteLength" : 502776,
            "byteOffset" : 0
        },
        {
            "buffer" : 0,
            "byteLength" : 502776,
            "byteOffset" : 502776
        },
        {
            "buffer" : 0,
            "byteLength" : 335184,
            "byteOffset" : 1005552
        },
        {
            "buffer" : 0,
            "byteLength" : 441084,
            "byteOffset" : 1340736
        },
        {
            "buffer" : 0,
            "byteLength" : 138240,
            "byteOffset" : 1781820
        },
        {
            "buffer" : 0,
            "byteLength" : 138240,
            "byteOffset" : 1920060
        },
        {
            "buffer" : 0,
            "byteLength" : 92160,
            "byteOffset" : 2058300
        },
        {
            "buffer" : 0,
            "byteLength" : 135648,
            "byteOffset" : 2150460
        }
    ],
    "buffers" : [
        {
            "byteLength" : 2286108,
            "uri" : "data:application/octet-stream;base64,"
        }
    ]
}
